# xmcd
#
# Track frame offsets:
#	183
#	18043
#	28928
#	42095
#	58565
#	71633
#	91970
#	112885
#	124898
#	142673
#	154863
#	169628
#	184198
#	209643
#	234193
#
# Disc length: 3328 seconds
#
# Revision: 0
# Processed by: cddbd v1.4PL0 Copyright (c) Steve Scherf et al.
# Submitted via: EasyCDDAExtractor 4.6.0.1
#
DISCID=c00cfe0f
DTITLE=Nashville Fever - High In The Saddle
DYEAR=1900
DGENRE=Country
TTITLE0=Big Wheels
TTITLE1=Truck Off The Road
TTITLE2=On the Right Side of a Woman at the Wrong Time Again
TTITLE3=Acapulco
TTITLE4=Living on the Easy Plan
TTITLE5=Like a Stone Sinking in Water
TTITLE6=She's in Love With Haggard, But I Sing Like George Jones
TTITLE7=There You Go Breaking My Heart Again
TTITLE8=Dont Get Behind The Wheel
TTITLE9=Where Eagles Fly
TTITLE10=High In The Saddle
TTITLE11=Oh Jack Daniels
TTITLE12=The Ballad Of Billy And The Widow
TTITLE13=Every Time I See You
TTITLE14=The Cajun Stripper
EXTD=
EXTT0=
EXTT1=
EXTT2=
EXTT3=
EXTT4=
EXTT5=
EXTT6=
EXTT7=
EXTT8=
EXTT9=
EXTT10=
EXTT11=
EXTT12=
EXTT13=
EXTT14=
PLAYORDER=
